<svg width="151" height="194" viewBox="0 0 151 194" fill="none" xmlns="http://www.w3.org/2000/svg">
<path d="M140.28 193.89L39.88 193.8C32.53 193.8 27.31 188.11 27.3 180.88L27.25 41.0401C27.25 33.6001 31.53 28.3001 38.99 27.3101L137.8 27.3301C144.42 27.3301 150.57 31.9801 150.58 39.0601L150.79 179.84C150.8 186.68 147.44 192.12 140.28 193.88V193.89ZM137.26 180.21L137.2 40.8501H40.81V180.32L137.27 180.21H137.26Z" fill="white"/>
<path d="M13.52 16.71L13.84 118.7L13.43 133.95C13.33 137.78 10.4 140.49 7.27 140.59C3.7 140.7 0.06 138.3 0.06 133.91L0 17.01C0 7.34 7.18 0.06 16.88 0.05L99.82 0C104.1 0 106.9 2.78 107.1 6.55C107.31 10.4 104.33 13.58 99.81 13.58L16.9 13.65C15.63 13.65 13.52 14.5 13.52 16.71Z" fill="white"/>
</svg>
