<svg width="238" height="38" viewBox="0 0 238 38" fill="none" xmlns="http://www.w3.org/2000/svg">
<g clip-path="url(#clip0_54_57)">
<path d="M0 2.70151C0 2.70151 0.307888 2.78097 0.815332 2.91718L1.44536 2.29004C0.5274 2.53692 0 2.70151 0 2.70151Z" fill="#BFA477"/>
<path d="M4.51568 1.53248L2.60564 3.43376C2.91638 3.5274 3.24137 3.62672 3.57776 3.73172L6.13494 1.18628C5.56478 1.29979 5.02312 1.41897 4.51283 1.53248H4.51568Z" fill="#BFA477"/>
<path d="M8.95725 0.675292L5.30821 4.30758C5.6218 4.41825 5.93254 4.53176 6.23758 4.64811L10.4511 0.456787C9.94363 0.524893 9.44474 0.598673 8.95725 0.67813V0.675292Z" fill="#BFA477"/>
<path d="M14.1771 1.58059L15.7507 0.0141602C14.8499 0.036862 13.9433 0.0907788 13.051 0.167397L12.8315 0.385902L11.9306 1.28262L7.86539 5.32922C8.17042 5.47111 8.45265 5.61583 8.70638 5.76056L12.5692 1.91544C13.1052 1.83314 13.4273 1.7849 13.9234 1.70828C14.0203 1.69409 14.1087 1.64869 14.1799 1.58059H14.1771Z" fill="#BFA477"/>
<path d="M15.9674 3.36271L19.2686 0.0766186C18.1825 0.0198641 17.2702 0 16.797 0L14.619 2.16802L13.7181 3.06474L9.93223 6.83325C9.9978 6.995 9.99209 7.15391 9.90372 7.30431C9.65285 7.72713 8.84892 8.68344 7.79982 10.2243L14.3567 3.69756C14.8926 3.61526 15.2148 3.56702 15.7108 3.4904C15.8077 3.47622 15.8961 3.43081 15.9674 3.36271Z" fill="#BFA477"/>
<path d="M5.62465 15.2868C5.82706 15.2555 6.02661 15.2243 6.26893 15.1874C6.36586 15.1733 6.45424 15.1278 6.52551 15.0597L16.147 5.47958C16.6829 5.39728 17.0051 5.34904 17.5011 5.27242C17.5981 5.25824 17.6864 5.21283 17.7577 5.14473L22.5699 0.354643C21.8002 0.258161 21.0019 0.187218 20.2436 0.133301L16.4093 3.95004L15.5084 4.84677L5.72443 14.5858L4.91195 15.3946L4.71524 15.5904C4.53564 15.9678 4.35319 16.3566 4.17644 16.7624L5.61895 15.3265C5.61895 15.3265 5.6218 15.301 5.62465 15.2868Z" fill="#BFA477"/>
<path d="M7.41496 17.069C7.61736 17.0378 7.81692 17.0066 8.05924 16.9697C8.15617 16.9555 8.24454 16.9101 8.31581 16.842L17.9373 7.26184C18.4733 7.17955 18.7954 7.13131 19.2914 7.05469C19.3884 7.0405 19.4767 6.9951 19.548 6.92699L25.5262 0.976278C25.3551 0.911011 25.1812 0.851418 25.0045 0.803177C24.5483 0.678317 24.0295 0.573321 23.4764 0.485352L18.2024 5.73515L17.3016 6.63187L7.51473 16.3681L6.70225 17.1769L2.40893 21.4505C2.31485 21.7484 2.22078 22.0521 2.1324 22.3614L7.40925 17.1088C7.40925 17.1088 7.4121 17.0832 7.41496 17.069Z" fill="#BFA477"/>
<path d="M9.20527 18.8509C9.40767 18.8197 9.60723 18.7885 9.84955 18.7516C9.94648 18.7374 10.0349 18.692 10.1061 18.6239L19.7305 9.04375C20.2664 8.96145 20.5886 8.91321 21.0846 8.83659C21.1815 8.82241 21.2699 8.777 21.3412 8.7089L27.7127 2.36658C27.2538 1.9693 26.7634 1.60039 26.2303 1.30811L19.9927 7.51705L19.0919 8.41377L9.30789 18.1529L8.49541 18.9616L1.16027 26.2631C1.10611 26.5241 1.05194 26.7881 1.00348 27.0548L9.20241 18.8935C9.20241 18.8935 9.20526 18.868 9.20811 18.8538L9.20527 18.8509Z" fill="#BFA477"/>
<path d="M10.6022 21.0587C10.8616 21.0417 11.0269 21.0275 11.2864 21.0105L21.5151 10.8287C22.051 10.7464 22.3703 10.6982 22.8692 10.6215C22.9661 10.6073 23.0574 10.5619 23.1258 10.491L29.5173 4.12882C29.1153 3.72586 28.6934 3.28601 28.2458 2.86035L21.7773 9.29915L20.8765 10.1959L11.0925 19.935L10.28 20.7437L0.453276 30.5253C0.424768 30.7637 0.39626 31.0021 0.367752 31.2433L10.6022 21.0559V21.0587Z" fill="#BFA477"/>
<path d="M0.065567 35.1083L10.4454 24.7761C10.5423 24.4271 10.6506 24.1036 10.7761 23.8113L0.0997768 34.4414C0.0883735 34.6627 0.0769703 34.8841 0.065567 35.1083Z" fill="#BFA477"/>
<path d="M12.7859 22.4152C12.9883 22.384 13.1879 22.3528 13.4302 22.3159C13.5271 22.3017 13.6155 22.2563 13.6868 22.1882L23.3111 12.608C23.847 12.5258 24.1692 12.4775 24.6652 12.4009C24.7622 12.3867 24.8505 12.3413 24.9218 12.2732L31.5784 5.6471C31.071 5.49103 30.5721 5.11645 30.0504 4.63403L23.5762 11.0785L22.6754 11.9752L12.8914 21.7143L12.0789 22.5231L10.8017 23.7944C10.7134 24.0498 10.6364 24.3392 10.5708 24.657L12.7859 22.4521C12.7859 22.4521 12.7887 22.4266 12.7916 22.4124L12.7859 22.4152Z" fill="#BFA477"/>
<path d="M14.5762 24.1974C14.7786 24.1662 14.9782 24.1349 15.2205 24.0981C15.3174 24.0839 15.4058 24.0385 15.4771 23.9704L25.1014 14.3902C25.6374 14.3079 25.9595 14.2597 26.4555 14.183C26.5525 14.1689 26.6408 14.1235 26.7121 14.0553L34.1841 6.61766C33.6538 6.36511 33.0495 6.12106 32.3653 5.89404L25.3637 12.8635L24.4628 13.7602L14.6788 23.4993L13.8664 24.3081L10.3 27.858C10.3 28.0652 10.3 28.278 10.3 28.4909L14.5705 24.2399C14.5705 24.2399 14.5734 24.2144 14.5762 24.2002V24.1974Z" fill="#BFA477"/>
<path d="M0.741215 38L9.91228 28.8711C9.92083 28.6469 9.93223 28.4255 9.94363 28.207L0.105484 38H0.741215Z" fill="#BFA477"/>
<path d="M4.32183 37.9999L9.94363 32.4039C9.93508 32.2024 9.92652 31.9981 9.91797 31.7966L3.6861 37.9999H4.32183Z" fill="#BFA477"/>
<path d="M26.3529 16.2318C27.9237 13.0167 30.2813 12.0377 32.4137 11.9412L36.3479 8.02512C35.9544 7.66473 35.4641 7.31001 34.8626 6.96948L27.154 14.6427L26.2531 15.5394L16.4691 25.2785L15.6567 26.0872L10.434 31.286C10.4482 31.4818 10.4653 31.6747 10.4853 31.8705L16.3608 26.022C16.3608 26.022 16.3637 25.9964 16.3665 25.9823C16.5689 25.951 16.7685 25.9198 17.0108 25.8829C17.1077 25.8687 17.1961 25.8233 17.2674 25.7552L18.1996 24.8273C18.1483 24.4102 18.1198 24.0242 18.1169 23.678C18.1369 24.0185 18.1825 24.3903 18.2481 24.7791L26.0222 17.0406C26.1163 16.7682 26.2275 16.4986 26.3558 16.2347L26.3529 16.2318Z" fill="#BFA477"/>
<path d="M17.4441 27.8692L10.796 34.4868C10.8245 34.6741 10.853 34.8557 10.8815 35.0345L18.1483 27.8011C18.1483 27.8011 18.1511 27.7756 18.154 27.7614C18.3478 27.733 18.5388 27.7018 18.7669 27.6677C18.6871 27.3612 18.6129 27.0633 18.5474 26.771L18.2537 27.0633L17.4413 27.872L17.4441 27.8692Z" fill="#BFA477"/>
<path d="M7.90244 38L10.2002 35.7128C10.1802 35.5226 10.1603 35.3325 10.1432 35.1367L7.26956 37.9971H7.90529L7.90244 38Z" fill="#BFA477"/>
<path d="M35.5667 12.364L37.7362 10.2044C37.5965 9.67379 37.3257 9.11192 36.8524 8.55005L33.4286 11.9582C34.2211 12.0178 34.9538 12.1795 35.5667 12.364Z" fill="#BFA477"/>
<path d="M25.6231 19.7278L18.6728 26.6462C18.7612 26.9668 18.8581 27.2932 18.9636 27.6252L25.7229 20.8969C25.6659 20.5025 25.6345 20.1137 25.6259 19.7278H25.6231Z" fill="#BFA477"/>
<path d="M19.9471 29.5436C20.1495 29.5124 20.3491 29.4812 20.5914 29.4443C20.6883 29.4301 20.7767 29.3847 20.848 29.3166L26.4669 23.7234C26.35 23.4084 26.2417 23.0906 26.1448 22.7756L20.0498 28.8427L19.5537 29.3365C19.6107 29.4897 19.6677 29.6429 19.7276 29.7962L19.9443 29.5805C19.9443 29.5805 19.9471 29.555 19.95 29.5408L19.9471 29.5436Z" fill="#BFA477"/>
<path d="M37.3713 13.0848C37.3713 13.0848 37.873 12.2618 37.8588 11.1125L36.3393 12.6251C36.9636 12.8606 37.3485 13.0706 37.3713 13.0848Z" fill="#BFA477"/>
<path d="M11.3861 37.4636C11.4346 37.6395 11.4802 37.8041 11.5287 37.9545L19.4739 30.0457C19.4197 29.8868 19.3684 29.7251 19.3199 29.5662L19.2344 29.6513L11.3861 37.4636Z" fill="#BFA477"/>
<path d="M21.7374 31.3256C21.9399 31.2944 22.1394 31.2632 22.3817 31.2263C22.4787 31.2121 22.567 31.1667 22.6383 31.0986L27.5816 26.178C27.4334 25.8971 27.2908 25.6161 27.154 25.3352L21.8372 30.6276L21.0247 31.4363L20.58 31.879C20.6456 32.0266 20.7112 32.1713 20.7767 32.3189L21.7317 31.3682C21.7317 31.3682 21.7346 31.3427 21.7374 31.3285V31.3256Z" fill="#BFA477"/>
<path d="M15.0637 38.0001L20.4232 32.6651C20.3634 32.5147 20.3035 32.3615 20.2436 32.2083L14.4251 38.0001H15.0608H15.0637Z" fill="#BFA477"/>
<path d="M18.6443 38L21.5037 35.1537C21.4353 35.0119 21.3697 34.8671 21.3013 34.7224L18.0086 38H18.6443Z" fill="#BFA477"/>
<path d="M23.5277 33.1077C23.7302 33.0765 23.9297 33.0453 24.172 33.0084C24.269 32.9942 24.3573 32.9488 24.4286 32.8807L28.9129 28.4169C28.7447 28.1587 28.5822 27.9005 28.4197 27.6394L23.6304 32.4068L22.8179 33.2155L21.7289 34.2995C21.8002 34.4414 21.8743 34.5805 21.9455 34.7195L23.5249 33.1474C23.5249 33.1474 23.5277 33.1219 23.5306 33.1077H23.5277Z" fill="#BFA477"/>
<path d="M22.2249 37.9999L22.7409 37.4863C22.664 37.3558 22.5841 37.2224 22.5072 37.0862L21.5892 37.9999H22.2249Z" fill="#BFA477"/>
<path d="M25.3181 34.8899C25.5205 34.8587 25.72 34.8275 25.9623 34.7906C26.0593 34.7764 26.1476 34.731 26.2189 34.6629L30.3868 30.5141C30.2044 30.2729 30.0247 30.0289 29.848 29.782L25.4178 34.1918L24.6054 35.0006L23.0004 36.5982C23.083 36.7316 23.1657 36.8621 23.2455 36.987L25.3124 34.9296C25.3124 34.9296 25.3152 34.9041 25.3181 34.8899Z" fill="#BFA477"/>
<path d="M27.1084 36.672C27.3108 36.6408 27.5103 36.6096 27.7527 36.5727C27.8496 36.5585 27.938 36.5131 28.0092 36.445L31.9747 32.4977C31.7837 32.2707 31.5927 32.038 31.3988 31.8025L27.211 35.9711L26.3985 36.7799L25.1727 38.0001H25.8084L27.1027 36.7118C27.1027 36.7118 27.1055 36.6862 27.1084 36.672Z" fill="#BFA477"/>
<path d="M33.0438 33.7263L28.9984 37.7531L28.7504 37.9999H30.0247L33.651 34.3903C33.4514 34.1775 33.249 33.9562 33.0438 33.7263Z" fill="#BFA477"/>
<path d="M34.7742 35.5681L32.3311 38H33.6054L35.4099 36.2038C35.2075 36.0051 34.9966 35.7951 34.7742 35.5681Z" fill="#BFA477"/>
<path d="M36.5588 37.2991L35.8546 38H37.129L37.2344 37.895C37.0976 37.7815 36.8667 37.58 36.5616 37.2991H36.5588Z" fill="#BFA477"/>
<path d="M62.7007 15.6302L57.5892 37.6027H61.5376C62.199 37.6027 62.7749 37.1572 62.9374 36.5187L68.5421 14.5178H64.1062C63.4362 14.5178 62.8518 14.9775 62.7007 15.6302Z" fill="white"/>
<path d="M51.0723 14.5178H46.5709L52.1442 36.5187C52.3067 37.1572 52.8826 37.6027 53.5439 37.6027H57.5892L52.4777 15.6302C52.3267 14.9804 51.7451 14.5178 51.0723 14.5178Z" fill="white"/>
<path d="M83.2067 27.9147H90.7471V23.4509H83.2067V18.9872H94.9007V14.5234H79.1671C78.3688 14.5234 77.7245 15.1676 77.7245 15.9593V36.1725C77.7245 36.9642 78.3717 37.6083 79.1671 37.6083H95.0347V33.1446H83.2067V27.9203V27.9147Z" fill="white"/>
<path d="M123.745 34.4782C123.434 33.4084 122.961 32.367 122.331 31.3539C121.701 30.3408 120.906 29.393 119.954 28.5133C119.777 28.3459 119.586 28.1898 119.398 28.0309C120.216 27.662 120.94 27.1995 121.564 26.6575C122.374 25.9537 122.995 25.162 123.426 24.2908C123.854 23.4196 124.073 22.5342 124.073 21.6319C124.073 20.1335 123.705 18.8509 122.973 17.7981C122.246 16.7396 121.231 15.928 119.934 15.3662C118.637 14.8043 117.151 14.5205 115.466 14.5205H107.376C106.578 14.5205 105.93 15.1647 105.93 15.9592V37.6054H111.413V28.9731H113.539C113.688 29.0752 113.836 29.166 113.973 29.271C114.97 30.0202 115.806 30.8516 116.481 31.7682C117.157 32.6791 117.673 33.6439 118.029 34.6457C118.38 35.6474 118.56 36.6378 118.56 37.6054H124.21C124.21 36.5923 124.053 35.5481 123.748 34.4811L123.745 34.4782ZM118.106 22.9514C118.075 23.0081 118.046 23.0621 118.009 23.1188C117.944 23.2295 117.867 23.3317 117.781 23.4338C117.699 23.5303 117.607 23.6211 117.516 23.7062C117.322 23.8737 117.1 24.0212 116.849 24.1432C116.35 24.3873 115.771 24.5093 115.104 24.5093H111.415V18.9871H115.472C116.048 18.9871 116.555 19.0921 117 19.3163C117.22 19.4213 117.416 19.5546 117.59 19.7107C117.767 19.8639 117.921 20.0399 118.049 20.2414C118.303 20.6358 118.431 21.0984 118.431 21.629C118.431 22.1114 118.326 22.5513 118.112 22.9514H118.106Z" fill="white"/>
<path d="M145.967 18.9872V18.9815H144.69C144.625 18.9815 144.568 19.0382 144.568 19.1035V19.3305H145.967V33.1389H151.287V37.6026H135.168V33.1389H140.488V18.9843H135.168V14.5149H151.287V18.9843H145.967V18.9872Z" fill="white"/>
<path d="M181.317 14.5177V18.9872H173.272C173.207 18.9872 173.15 19.0439 173.15 19.1092V19.3362H174.538V37.6026H169.056V18.9843H162.277V14.5149H181.314L181.317 14.5177Z" fill="white"/>
<path d="M204.443 15.9537V29.3336C204.443 30.1934 204.278 30.9312 203.944 31.5499C203.611 32.1656 203.146 32.6481 202.547 32.9886C201.949 33.3291 201.23 33.4994 200.389 33.4994C199.548 33.4994 198.856 33.3291 198.245 32.9886C197.635 32.6452 197.165 32.1656 196.834 31.5499C196.504 30.9312 196.335 30.1934 196.335 29.3336V15.9537C196.335 15.162 195.688 14.5178 194.893 14.5178H190.853V29.3336C190.853 31.076 191.23 32.597 191.982 33.8967C192.735 35.1963 193.821 36.2066 195.238 36.9217C196.655 37.6396 198.371 37.9972 200.386 37.9972C202.402 37.9972 204.118 37.6396 205.535 36.9217C206.952 36.2066 208.038 35.1963 208.791 33.8967C209.543 32.597 209.92 31.0731 209.92 29.3336V14.5178H205.88C205.082 14.5178 204.437 15.162 204.437 15.9537H204.443Z" fill="white"/>
<path d="M237.35 27.7302C236.917 26.859 236.344 26.1581 235.622 25.6303C234.904 25.0996 234.117 24.6881 233.265 24.3902C232.412 24.0922 231.56 23.8453 230.708 23.6467C229.855 23.4481 229.068 23.2437 228.35 23.0338C227.629 22.8238 227.056 22.5542 226.622 22.225C226.189 21.893 225.975 21.4418 225.975 20.8686C225.975 20.1194 226.263 19.5519 226.839 19.1659C227.415 18.78 228.113 18.587 228.932 18.587C229.507 18.587 230.055 18.7091 230.577 18.9503C231.098 19.1915 231.529 19.5575 231.871 20.0428C232.216 20.528 232.407 21.1438 232.452 21.8958H237.934C237.889 20.2187 237.447 18.8084 236.606 17.6619C235.765 16.5155 234.667 15.6386 233.316 15.0314C231.965 14.4241 230.502 14.1233 228.932 14.1233C227.204 14.1233 225.699 14.4326 224.413 15.0484C223.127 15.667 222.127 16.4928 221.405 17.5286C220.687 18.5643 220.325 19.7335 220.325 21.0332C220.325 22.3328 220.542 23.326 220.972 24.1433C221.403 24.9577 221.978 25.6218 222.7 26.1269C223.418 26.6348 224.205 27.0406 225.057 27.3499C225.91 27.6592 226.762 27.9175 227.615 28.1275C228.467 28.3375 229.254 28.5588 229.972 28.7887C230.691 29.0185 231.269 29.3051 231.7 29.6485C232.13 29.989 232.347 30.4572 232.347 31.0532C232.347 31.8477 232.053 32.4578 231.466 32.8892C230.879 33.3177 230.086 33.5333 229.091 33.5333C227.828 33.5333 226.893 33.1644 226.283 32.4266C225.673 31.6888 225.371 30.6247 225.371 29.2342H219.989C219.989 31.0191 220.348 32.5685 221.069 33.8795C221.787 35.1906 222.831 36.2065 224.191 36.9216C225.553 37.6395 227.187 37.9971 229.091 37.9971C230.819 37.9971 232.353 37.6991 233.692 37.1032C235.032 36.5073 236.084 35.6872 236.848 34.6401C237.612 33.5929 237.994 32.3954 237.994 31.0503C237.994 29.7052 237.778 28.5985 237.347 27.7274L237.35 27.7302Z" fill="white"/>
</g>
<defs>
<clipPath id="clip0_54_57">
<rect width="238" height="38" fill="white"/>
</clipPath>
</defs>
</svg>
