<svg width="175" height="28" viewBox="0 0 175 28" fill="none" xmlns="http://www.w3.org/2000/svg">
<g clip-path="url(#clip0_6_131)">
<path d="M0 1.9906C0 1.9906 0.226388 2.04914 0.599509 2.14951L1.06277 1.68741C0.387794 1.86932 0 1.9906 0 1.9906Z" fill="#BFA477"/>
<path d="M3.32035 1.12912L1.91591 2.53006C2.14439 2.59906 2.38336 2.67225 2.63071 2.74961L4.51099 0.874023C4.09175 0.957662 3.69347 1.04548 3.31826 1.12912H3.32035Z" fill="#BFA477"/>
<path d="M6.58621 0.497643L3.90309 3.17407C4.13367 3.25561 4.36216 3.33925 4.58645 3.42498L7.68461 0.336639C7.31149 0.386822 6.94466 0.441187 6.58621 0.499734V0.497643Z" fill="#BFA477"/>
<path d="M10.4243 1.16468L11.5814 0.0104675C10.919 0.0271952 10.2524 0.0669233 9.59633 0.123379L9.43492 0.284383L8.77253 0.945125L5.78337 3.92683C6.00766 4.03138 6.21519 4.13802 6.40175 4.24465L9.24208 1.41141C9.63616 1.35077 9.87303 1.31522 10.2378 1.25877C10.309 1.24831 10.374 1.21486 10.4264 1.16468H10.4243Z" fill="#BFA477"/>
<path d="M11.7407 2.47778L14.1681 0.0564558C13.3695 0.0146367 12.6987 0 12.3507 0L10.7492 1.59749L10.0868 2.25823L7.30311 5.03502C7.35133 5.15421 7.34713 5.2713 7.28215 5.38212C7.09769 5.69367 6.50656 6.39833 5.73517 7.53372L10.5564 2.72452C10.9505 2.66388 11.1873 2.62833 11.5521 2.57188C11.6234 2.56142 11.6883 2.52797 11.7407 2.47778Z" fill="#BFA477"/>
<path d="M4.13577 11.264C4.2846 11.241 4.43133 11.218 4.60951 11.1908C4.68078 11.1803 4.74576 11.1469 4.79816 11.0967L11.8728 4.03763C12.2669 3.97699 12.5037 3.94144 12.8685 3.88499C12.9397 3.87453 13.0047 3.84108 13.0571 3.7909L16.5955 0.261361C16.0295 0.190269 15.4426 0.137995 14.885 0.0982666L12.0656 2.9106L11.4032 3.57135L4.20914 10.7475L3.61172 11.3434L3.46709 11.4877C3.33503 11.7658 3.20087 12.0523 3.07091 12.3513L4.13158 11.2932C4.13158 11.2932 4.13367 11.2744 4.13577 11.264Z" fill="#BFA477"/>
<path d="M5.45218 12.5771C5.60101 12.5541 5.74774 12.5311 5.92592 12.5039C5.99719 12.4935 6.06217 12.46 6.11457 12.4098L13.1892 5.35075C13.5833 5.29011 13.8201 5.25456 14.1849 5.19811C14.2562 5.18765 14.3211 5.1542 14.3735 5.10402L18.7692 0.719279C18.6435 0.671187 18.5156 0.627277 18.3856 0.591731C18.0502 0.499729 17.6687 0.422364 17.2621 0.357544L13.3841 4.22581L12.7217 4.88656L5.52555 12.0606L4.92813 12.6566L1.77128 15.8055C1.7021 16.0251 1.63293 16.2488 1.56795 16.4767L5.44799 12.6064C5.44799 12.6064 5.45008 12.5875 5.45218 12.5771Z" fill="#BFA477"/>
<path d="M6.76858 13.8902C6.91741 13.8672 7.06414 13.8442 7.24232 13.817C7.31359 13.8066 7.37857 13.7731 7.43097 13.7229L14.5077 6.66388C14.9018 6.60324 15.1386 6.56769 15.5034 6.51124C15.5747 6.50078 15.6396 6.46733 15.692 6.41714L20.377 1.74385C20.0395 1.45112 19.679 1.1793 19.287 0.963928L14.7005 5.53894L14.0381 6.19968L6.84404 13.3758L6.24663 13.9718L0.853144 19.3518C0.813317 19.5442 0.773489 19.7386 0.737854 19.9352L6.76648 13.9216C6.76648 13.9216 6.76858 13.9028 6.77067 13.8923L6.76858 13.8902Z" fill="#BFA477"/>
<path d="M7.7957 15.517C7.98646 15.5045 8.10804 15.494 8.29879 15.4815L15.8199 7.9791C16.214 7.91846 16.4488 7.88292 16.8156 7.82646C16.8869 7.81601 16.9539 7.78255 17.0042 7.73028L21.7039 3.04235C21.4083 2.74544 21.0981 2.42134 20.769 2.1077L16.0127 6.85208L15.3504 7.51282L8.15625 14.689L7.55884 15.2849L0.333287 22.4924C0.312325 22.6681 0.291363 22.8437 0.270401 23.0214L7.7957 15.5149V15.517Z" fill="#BFA477"/>
<path d="M0.0482178 25.8693L7.68043 18.2562C7.7517 17.999 7.83135 17.7606 7.92358 17.5452L0.073372 25.378C0.0649873 25.541 0.0566025 25.7041 0.0482178 25.8693Z" fill="#BFA477"/>
<path d="M9.40139 16.5165C9.55022 16.4935 9.69696 16.4705 9.87513 16.4433C9.9464 16.4328 10.0114 16.3994 10.0638 16.3492L17.1405 9.29011C17.5346 9.22947 17.7715 9.19392 18.1362 9.13747C18.2075 9.12701 18.2724 9.09356 18.3249 9.04338L23.2194 4.16099C22.8463 4.04599 22.4795 3.76998 22.0959 3.41452L17.3355 8.16308L16.6731 8.82382L9.47895 16L8.88154 16.5959L7.94245 17.5327C7.87747 17.7208 7.82087 17.9341 7.77266 18.1683L9.40139 16.5436C9.40139 16.5436 9.40349 16.5248 9.40559 16.5144L9.40139 16.5165Z" fill="#BFA477"/>
<path d="M10.7178 17.8296C10.8666 17.8066 11.0134 17.7836 11.1915 17.7564C11.2628 17.746 11.3278 17.7125 11.3802 17.6623L18.4569 10.6032C18.851 10.5426 19.0879 10.5071 19.4526 10.4506C19.5239 10.4402 19.5888 10.4067 19.6413 10.3565L25.1354 4.87612C24.7455 4.69002 24.3011 4.5102 23.798 4.34293L18.6498 9.47832L17.9874 10.1391L10.7933 17.3152L10.1958 17.9111L7.57352 20.5269C7.57352 20.6796 7.57352 20.8364 7.57352 20.9932L10.7136 17.861C10.7136 17.861 10.7157 17.8421 10.7178 17.8317V17.8296Z" fill="#BFA477"/>
<path d="M0.54501 28L7.28844 21.2734C7.29473 21.1082 7.30311 20.9451 7.3115 20.7841L0.0775604 28H0.54501Z" fill="#BFA477"/>
<path d="M3.17782 28L7.3115 23.8766C7.30521 23.7282 7.29892 23.5776 7.29263 23.4292L2.71037 28H3.17782Z" fill="#BFA477"/>
<path d="M19.3771 11.9603C20.5321 9.5912 22.2657 8.86982 23.8336 8.79873L26.7264 5.91321C26.4371 5.64766 26.0765 5.38629 25.6343 5.13538L19.9662 10.7893L19.3038 11.4501L12.1097 18.6262L11.5123 19.2222L7.67204 23.0528C7.68252 23.1971 7.6951 23.3392 7.70977 23.4835L12.03 19.1741C12.03 19.1741 12.0321 19.1552 12.0342 19.1448C12.183 19.1218 12.3298 19.0988 12.5079 19.0716C12.5792 19.0611 12.6442 19.0277 12.6966 18.9775L13.3821 18.2938C13.3443 17.9864 13.3234 17.702 13.3213 17.4469C13.3359 17.6978 13.3695 17.9718 13.4177 18.2582L19.134 12.5562C19.2032 12.3554 19.2849 12.1568 19.3792 11.9623L19.3771 11.9603Z" fill="#BFA477"/>
<path d="M12.8266 20.5353L7.93825 25.4114C7.95921 25.5494 7.98017 25.6832 8.00113 25.8149L13.3443 20.4851C13.3443 20.4851 13.3464 20.4663 13.3485 20.4558C13.491 20.4349 13.6315 20.4119 13.7992 20.3868C13.7405 20.161 13.686 19.9414 13.6378 19.7261L13.4219 19.9414L12.8245 20.5374L12.8266 20.5353Z" fill="#BFA477"/>
<path d="M5.81063 28L7.50015 26.3147C7.48548 26.1746 7.47081 26.0345 7.45823 25.8902L5.34528 27.9979H5.81273L5.81063 28Z" fill="#BFA477"/>
<path d="M26.152 9.11029L27.7472 7.51908C27.6445 7.12807 27.4453 6.71406 27.0974 6.30005L24.5799 8.81129C25.1626 8.8552 25.7013 8.97438 26.152 9.11029Z" fill="#BFA477"/>
<path d="M18.8405 14.5363L13.73 19.6341C13.795 19.8703 13.8663 20.1108 13.9438 20.3554L18.9139 15.3978C18.872 15.1071 18.8489 14.8207 18.8426 14.5363H18.8405Z" fill="#BFA477"/>
<path d="M14.667 21.7689C14.8159 21.7459 14.9626 21.7229 15.1408 21.6958C15.212 21.6853 15.277 21.6518 15.3294 21.6017L19.461 17.4804C19.3751 17.2483 19.2954 17.0141 19.2241 16.782L14.7425 21.2525L14.3777 21.6163C14.4197 21.7292 14.4616 21.8421 14.5056 21.955L14.6649 21.7961C14.6649 21.7961 14.667 21.7773 14.6691 21.7669L14.667 21.7689Z" fill="#BFA477"/>
<path d="M27.4789 9.64139C27.4789 9.64139 27.8478 9.03501 27.8373 8.18817L26.7201 9.30265C27.1791 9.4762 27.4621 9.63093 27.4789 9.64139Z" fill="#BFA477"/>
<path d="M8.37216 27.6048C8.4078 27.7344 8.44134 27.8557 8.47697 27.9665L14.319 22.139C14.2792 22.022 14.2415 21.9028 14.2058 21.7857L14.143 21.8484L8.37216 27.6048Z" fill="#BFA477"/>
<path d="M15.9834 23.0821C16.1322 23.0591 16.279 23.0361 16.4571 23.0089C16.5284 22.9984 16.5934 22.965 16.6458 22.9148L20.2806 19.2891C20.1716 19.0821 20.0668 18.8751 19.9662 18.6681L16.0568 22.5677L15.4594 23.1636L15.1324 23.4898C15.1806 23.5985 15.2288 23.7052 15.277 23.8139L15.9792 23.1134C15.9792 23.1134 15.9813 23.0946 15.9834 23.0842V23.0821Z" fill="#BFA477"/>
<path d="M11.0762 28L15.0171 24.069C14.973 23.9582 14.929 23.8453 14.885 23.7324L10.6067 28H11.0741H11.0762Z" fill="#BFA477"/>
<path d="M13.7091 28L15.8115 25.9028C15.7612 25.7982 15.713 25.6916 15.6627 25.5849L13.2416 28H13.7091Z" fill="#BFA477"/>
<path d="M17.2998 24.3952C17.4486 24.3722 17.5954 24.3492 17.7735 24.322C17.8448 24.3115 17.9098 24.2781 17.9622 24.2279L21.2595 20.9388C21.1358 20.7486 21.0163 20.5583 20.8969 20.3659L17.3753 23.8787L16.7779 24.4746L15.9771 25.2734C16.0295 25.3779 16.084 25.4804 16.1364 25.5828L17.2977 24.4245C17.2977 24.4245 17.2998 24.4056 17.3019 24.3952H17.2998Z" fill="#BFA477"/>
<path d="M16.3419 28L16.7213 27.6215C16.6647 27.5254 16.606 27.4271 16.5494 27.3267L15.8744 28H16.3419Z" fill="#BFA477"/>
<path d="M18.6162 25.7083C18.765 25.6853 18.9118 25.6623 19.09 25.6351C19.1612 25.6247 19.2262 25.5912 19.2786 25.541L22.3432 22.484C22.2091 22.3063 22.077 22.1265 21.9471 21.9446L18.6896 25.1939L18.0922 25.7898L16.912 26.9671C16.9728 27.0653 17.0336 27.1615 17.0923 27.2535L18.612 25.7376C18.612 25.7376 18.6141 25.7188 18.6162 25.7083Z" fill="#BFA477"/>
<path d="M19.9326 27.0214C20.0814 26.9984 20.2282 26.9754 20.4064 26.9482C20.4776 26.9378 20.5426 26.9043 20.595 26.8542L23.5108 23.9456C23.3704 23.7784 23.2299 23.6069 23.0874 23.4333L20.0081 26.505L19.4107 27.1009L18.5093 28H18.9768L19.9284 27.0507C19.9284 27.0507 19.9305 27.0319 19.9326 27.0214Z" fill="#BFA477"/>
<path d="M24.2969 24.851L21.3224 27.8181L21.14 28H22.077L24.7434 25.3403C24.5966 25.1835 24.4478 25.0204 24.2969 24.851Z" fill="#BFA477"/>
<path d="M25.5693 26.208L23.7728 28H24.7098L26.0367 26.6764C25.8879 26.53 25.7328 26.3753 25.5693 26.208Z" fill="#BFA477"/>
<path d="M26.8815 27.4835L26.3637 28H27.3007L27.3783 27.9226C27.2776 27.839 27.1079 27.6905 26.8836 27.4835H26.8815Z" fill="#BFA477"/>
<path d="M46.1035 11.517L42.345 27.7073H45.2482C45.7346 27.7073 46.158 27.379 46.2775 26.9085L50.3986 10.6973H47.1369C46.6443 10.6973 46.2146 11.0361 46.1035 11.517Z" fill="#1E1E1E"/>
<path d="M37.5532 10.6973H34.2433L38.3413 26.9085C38.4608 27.379 38.8842 27.7073 39.3706 27.7073H42.345L38.5866 11.517C38.4755 11.0382 38.0479 10.6973 37.5532 10.6973Z" fill="#1E1E1E"/>
<path d="M61.1814 20.5687H66.7258V17.2797H61.1814V13.9906H69.7799V10.7015H58.2111C57.6241 10.7015 57.1504 11.1762 57.1504 11.7595V26.6534C57.1504 27.2368 57.6262 27.7114 58.2111 27.7114H69.8784V24.4224H61.1814V20.5729V20.5687Z" fill="#1E1E1E"/>
<path d="M90.9891 25.4051C90.7606 24.6168 90.4127 23.8494 89.9494 23.103C89.4861 22.3565 88.9013 21.6581 88.2012 21.0099C88.0712 20.8865 87.9308 20.7715 87.7924 20.6544C88.394 20.3826 88.9265 20.0418 89.3855 19.6424C89.9808 19.1239 90.4378 18.5405 90.7543 17.8986C91.0688 17.2566 91.2302 16.6043 91.2302 15.9393C91.2302 14.8353 90.9598 13.8902 90.421 13.1145C89.8865 12.3345 89.1403 11.7365 88.1865 11.3225C87.2327 10.9085 86.1406 10.6994 84.9018 10.6994H78.9528C78.3659 10.6994 77.89 11.174 77.89 11.7595V27.7093H81.921V21.3486H83.4848C83.5938 21.4239 83.7028 21.4908 83.8034 21.5682C84.5371 22.1202 85.1512 22.7329 85.648 23.4082C86.1448 24.0794 86.5242 24.7904 86.7863 25.5285C87.0441 26.2666 87.1761 26.9963 87.1761 27.7093H91.3308C91.3308 26.9629 91.2155 26.1934 90.9912 25.4072L90.9891 25.4051ZM86.8429 16.9116C86.8198 16.9535 86.7988 16.9932 86.7716 17.035C86.7234 17.1165 86.6668 17.1918 86.6039 17.2671C86.5431 17.3382 86.476 17.4051 86.4089 17.4678C86.2664 17.5912 86.1029 17.6999 85.9184 17.7898C85.5516 17.9697 85.1261 18.0596 84.6356 18.0596H81.9231V13.9906H84.906C85.3294 13.9906 85.7025 14.0679 86.0295 14.2331C86.1909 14.3105 86.3356 14.4088 86.4634 14.5238C86.5934 14.6367 86.7066 14.7663 86.8009 14.9148C86.9875 15.2054 87.0818 15.5462 87.0818 15.9372C87.0818 16.2927 87.0043 16.6168 86.847 16.9116H86.8429Z" fill="#1E1E1E"/>
<path d="M107.329 13.9906V13.9864H106.39C106.342 13.9864 106.3 14.0282 106.3 14.0763V14.2436H107.329V24.4182H111.24V27.7072H99.3885V24.4182H103.3V13.9885H99.3885V10.6952H111.24V13.9885H107.329V13.9906Z" fill="#1E1E1E"/>
<path d="M133.322 10.6973V13.9906H127.406C127.358 13.9906 127.316 14.0324 127.316 14.0805V14.2478H128.337V27.7072H124.306V13.9885H119.321V10.6952H133.319L133.322 10.6973Z" fill="#1E1E1E"/>
<path d="M150.326 11.7554V21.6142C150.326 22.2478 150.204 22.7914 149.959 23.2472C149.714 23.701 149.372 24.0564 148.932 24.3074C148.492 24.5583 147.963 24.6837 147.345 24.6837C146.727 24.6837 146.217 24.5583 145.769 24.3074C145.32 24.0544 144.974 23.701 144.731 23.2472C144.488 22.7914 144.364 22.2478 144.364 21.6142V11.7554C144.364 11.172 143.888 10.6973 143.304 10.6973H140.333V21.6142C140.333 22.8981 140.61 24.0188 141.163 24.9765C141.717 25.9341 142.515 26.6785 143.557 27.2054C144.599 27.7344 145.861 27.9979 147.343 27.9979C148.825 27.9979 150.087 27.7344 151.129 27.2054C152.17 26.6785 152.969 25.9341 153.523 24.9765C154.076 24.0188 154.353 22.896 154.353 21.6142V10.6973H151.382C150.795 10.6973 150.322 11.172 150.322 11.7554H150.326Z" fill="#1E1E1E"/>
<path d="M174.522 20.4328C174.203 19.7909 173.782 19.2744 173.252 18.8855C172.724 18.4945 172.145 18.1913 171.518 17.9718C170.891 17.7522 170.265 17.5703 169.638 17.4239C169.011 17.2776 168.433 17.127 167.904 16.9723C167.374 16.8175 166.953 16.6189 166.634 16.3764C166.316 16.1317 166.158 15.7993 166.158 15.3769C166.158 14.8249 166.37 14.4067 166.793 14.1223C167.217 13.8379 167.73 13.6958 168.332 13.6958C168.755 13.6958 169.158 13.7857 169.542 13.9634C169.925 14.1411 170.242 14.4109 170.493 14.7684C170.747 15.126 170.887 15.5797 170.921 16.1338H174.952C174.918 14.8981 174.593 13.8588 173.975 13.0141C173.357 12.1694 172.55 11.5232 171.556 11.0758C170.562 10.6283 169.487 10.4067 168.332 10.4067C167.062 10.4067 165.955 10.6346 165.01 11.0883C164.064 11.5442 163.328 12.1526 162.798 12.9158C162.27 13.679 162.004 14.5405 162.004 15.4982C162.004 16.4558 162.163 17.1876 162.48 17.7898C162.796 18.3899 163.219 18.8792 163.75 19.2514C164.278 19.6257 164.857 19.9247 165.483 20.1526C166.11 20.3805 166.737 20.5708 167.364 20.7255C167.99 20.8803 168.569 21.0434 169.097 21.2127C169.625 21.3821 170.051 21.5933 170.367 21.8463C170.684 22.0972 170.843 22.4422 170.843 22.8813C170.843 23.4668 170.627 23.9163 170.196 24.2342C169.764 24.5499 169.181 24.7088 168.449 24.7088C167.521 24.7088 166.833 24.437 166.385 23.8933C165.936 23.3497 165.714 22.5656 165.714 21.541H161.756C161.756 22.8562 162.02 23.9979 162.551 24.9639C163.079 25.9299 163.846 26.6785 164.846 27.2054C165.848 27.7344 167.049 27.9979 168.449 27.9979C169.72 27.9979 170.847 27.7783 171.833 27.3392C172.818 26.9001 173.591 26.2959 174.153 25.5243C174.715 24.7527 174.996 23.8703 174.996 22.8792C174.996 21.8881 174.837 21.0726 174.52 20.4307L174.522 20.4328Z" fill="#1E1E1E"/>
</g>
<defs>
<clipPath id="clip0_6_131">
<rect width="175" height="28" fill="white"/>
</clipPath>
</defs>
</svg>
